<svg width="66" height="78" viewBox="0 0 66 78" fill="none" xmlns="http://www.w3.org/2000/svg">
<g id="Vector" filter="url(#filter0_d_8_375)">
<path d="M10.0711 11.2863L10.0038 53.4231C10.0044 53.8497 10.1214 54.2681 10.3422 54.6331C10.5629 54.9982 10.879 55.2962 11.2565 55.4949C11.634 55.6937 12.0585 55.7858 12.4845 55.7612C12.9104 55.7366 13.3215 55.5964 13.6736 55.3555L44.1394 34.3358C45.4026 33.4646 45.4059 31.3624 44.1456 30.4849L13.7471 9.3679C13.3965 9.12348 12.9856 8.97981 12.559 8.95251C12.1325 8.92522 11.7066 9.01534 11.3277 9.21308C10.9488 9.41082 10.6313 9.70863 10.4098 10.0741C10.1882 10.4396 10.0711 10.8589 10.0711 11.2863Z" fill="white"/>
</g>
<defs>
<filter id="filter0_d_8_375" x="0.00378418" y="0.947754" width="65.0851" height="76.8174" filterUnits="userSpaceOnUse" color-interpolation-filters="sRGB">
<feFlood flood-opacity="0" result="BackgroundImageFix"/>
<feColorMatrix in="SourceAlpha" type="matrix" values="0 0 0 0 0 0 0 0 0 0 0 0 0 0 0 0 0 0 127 0" result="hardAlpha"/>
<feOffset dx="5" dy="7"/>
<feGaussianBlur stdDeviation="7.5"/>
<feComposite in2="hardAlpha" operator="out"/>
<feColorMatrix type="matrix" values="0 0 0 0 0 0 0 0 0 0 0 0 0 0 0 0 0 0 1 0"/>
<feBlend mode="normal" in2="BackgroundImageFix" result="effect1_dropShadow_8_375"/>
<feBlend mode="normal" in="SourceGraphic" in2="effect1_dropShadow_8_375" result="shape"/>
</filter>
</defs>
</svg>
