<svg width="66" height="78" viewBox="0 0 66 78" fill="none" xmlns="http://www.w3.org/2000/svg">
<g id="Vector" filter="url(#filter0_d_8_376)">
<path d="M45.0551 11.2863L45.1224 53.4231C45.1218 53.8497 45.0048 54.2681 44.784 54.6331C44.5633 54.9982 44.2472 55.2962 43.8697 55.4949C43.4922 55.6937 43.0677 55.7858 42.6418 55.7612C42.2159 55.7366 41.8047 55.5964 41.4526 55.3555L10.9868 34.3358C9.72364 33.4646 9.72028 31.3624 10.9806 30.4849L41.3791 9.3679C41.7297 9.12348 42.1406 8.97981 42.5672 8.95251C42.9937 8.92522 43.4196 9.01534 43.7985 9.21308C44.1774 9.41082 44.4949 9.70863 44.7164 10.0741C44.938 10.4396 45.0551 10.8589 45.0551 11.2863Z" fill="white"/>
</g>
<defs>
<filter id="filter0_d_8_376" x="0.0373955" y="0.947754" width="65.085" height="76.8174" filterUnits="userSpaceOnUse" color-interpolation-filters="sRGB">
<feFlood flood-opacity="0" result="BackgroundImageFix"/>
<feColorMatrix in="SourceAlpha" type="matrix" values="0 0 0 0 0 0 0 0 0 0 0 0 0 0 0 0 0 0 127 0" result="hardAlpha"/>
<feOffset dx="5" dy="7"/>
<feGaussianBlur stdDeviation="7.5"/>
<feComposite in2="hardAlpha" operator="out"/>
<feColorMatrix type="matrix" values="0 0 0 0 0 0 0 0 0 0 0 0 0 0 0 0 0 0 1 0"/>
<feBlend mode="normal" in2="BackgroundImageFix" result="effect1_dropShadow_8_376"/>
<feBlend mode="normal" in="SourceGraphic" in2="effect1_dropShadow_8_376" result="shape"/>
</filter>
</defs>
</svg>
